<svg width="100" height="100" viewBox="0 0 100 100" fill="none" xmlns="http://www.w3.org/2000/svg">
<path d="M20.9821 66.679C20.3541 74.3344 21.1668 81.361 26.7078 87.0562C27.0033 87.3891 27.0772 87.7219 27.0772 88.1287C27.0772 91.79 27.0772 95.4142 27.0772 99.0755C27.0772 99.7412 26.9664 100 26.2276 100C24.0481 99.963 21.8317 99.963 19.6522 100C18.9134 100 18.7656 99.7412 18.7656 99.0755C18.7656 96.5977 18.7656 94.1568 18.7656 91.679C18.7656 90.9764 18.6179 90.4216 18.2115 89.8669C14.3698 84.6154 12.5227 78.7352 12.5227 72.2633C12.5227 68.7131 12.5227 65.1258 12.5227 61.5755C12.5227 61.1687 12.5227 60.7249 12.5227 60.1332C11.3407 61.0577 10.3063 61.8713 9.272 62.648C6.72312 64.5341 3.84179 65.7915 0.886566 67.0119C0.110821 67.3447 0 67.0858 0 66.3832C0 63.9793 0 61.5385 0 59.1346C0 58.5059 0.258582 58.2101 0.775745 57.9512C5.98432 55.5844 9.75222 51.7382 12.1533 46.5607C12.4119 46.006 12.7074 45.7841 13.3354 45.7841C15.441 45.7841 17.5466 45.858 19.6522 45.7841C20.5388 45.7841 20.8712 45.969 20.8343 46.9305C20.7974 48.8906 20.6865 50.8876 21.1668 52.8477C22.4966 58.395 27.188 62.3151 32.8768 62.463C36.7925 62.537 40.7082 62.5 44.6238 62.463C45.5473 62.463 45.8428 62.6849 45.8059 63.6095C45.732 65.7175 45.8059 67.8255 45.8059 69.9335C45.8059 70.4142 45.8798 70.895 45.104 70.858C40.2649 70.7101 35.4257 71.1169 30.6235 70.5991C27.1141 70.2293 23.9742 68.787 20.9821 66.679Z" fill="#FF8606"/>
<path d="M79.0892 66.9009C78.4612 66.8269 78.2026 67.2337 77.8332 67.4556C74.5086 69.6006 70.8884 70.784 66.9358 70.821C62.9832 70.895 59.0306 70.821 55.078 70.858C54.3392 70.858 54.1176 70.6361 54.1176 69.8965C54.1545 67.7515 54.1914 65.5695 54.1176 63.4246C54.1176 62.574 54.4131 62.426 55.1888 62.426C58.8459 62.426 62.466 62.426 66.1231 62.426C73.6959 62.426 78.9414 57.2115 79.0892 49.6302C79.0892 49.4823 79.0892 49.3713 79.0892 49.2234C79.163 48.0769 78.6089 46.5976 79.3477 45.932C79.9757 45.3772 81.4164 45.747 82.5246 45.747C84.0022 45.747 85.6276 45.3772 86.9574 45.858C88.3612 46.3388 88.472 48.2249 89.2847 49.4453C91.7597 53.1435 94.9735 55.9911 99 57.8772C99.5541 58.1361 99.9235 58.358 99.8865 59.0976C99.8496 61.5015 99.8496 63.9423 99.8865 66.3462C99.8865 67.0858 99.7388 67.2337 99 66.9379C94.8257 65.3476 90.947 63.2766 87.6593 60.2071C87.1791 60.466 87.4007 60.8728 87.4007 61.1686C87.4007 65.0518 87.4007 68.8979 87.4007 72.7811C87.3268 78.9941 85.4798 84.6154 81.8597 89.645C81.3795 90.3107 81.1209 90.9763 81.1578 91.8269C81.1948 94.2308 81.1578 96.6716 81.1578 99.0754C81.1578 99.7411 80.9731 100 80.2712 99.963C78.0918 99.926 75.8754 99.926 73.6959 99.963C72.9201 99.963 72.8463 99.6672 72.8463 99.0385C72.8463 95.4142 72.8463 91.8269 72.8463 88.2027C72.8463 87.6479 73.031 87.2411 73.4004 86.7973C77.2052 82.6183 79.0522 77.6997 79.0892 72.0414C79.0892 70.3033 79.0892 68.5651 79.0892 66.7899V66.9009Z" fill="#FF8606"/>
<path d="M43.7003 5.88018C43.6264 7.58136 43.885 9.61538 43.4048 11.6124C42.2596 16.605 39.4891 20.3402 34.7608 22.3373C23.5679 27.071 12.3011 31.6568 1.07127 36.3535C0.110821 36.7604 0 36.4645 0 35.6139C0.0369402 33.358 0.0738805 31.1391 0 28.8831C0 27.9586 0.332462 27.6257 1.10821 27.2929C11.0451 23.1879 20.9821 19.0459 30.9559 14.9408C33.9112 13.7204 35.3888 11.4645 35.4257 8.28402C35.4257 5.88018 35.4626 3.43935 35.4257 1.0355C35.4257 0.221893 35.6104 0 36.46 0C38.5287 0.0739645 40.5973 0.0739645 42.666 0C43.4787 0 43.8481 0.147929 43.7742 1.07249C43.7003 2.55177 43.7742 4.06805 43.7742 5.88018H43.7003Z" fill="#FF8606"/>
<path d="M99.9233 36.7602C94.6408 34.5782 89.5431 32.4703 84.4453 30.3623C78.2763 27.8105 72.0703 25.2217 65.9013 22.67C59.7692 20.1182 56.2599 14.9407 56.2599 8.35783C56.2599 5.95399 56.2599 3.51316 56.2599 1.10931C56.2599 0.369667 56.3707 -0.000155484 57.2573 0.0368268C59.3998 0.110791 61.5423 0.073809 63.7218 0.0368268C64.4237 0.0368268 64.6084 0.25872 64.6084 0.924401C64.5714 3.40221 64.6084 5.84304 64.6084 8.32085C64.6084 11.5013 66.1229 13.7203 69.0782 14.9407C78.9781 19.0457 88.8781 23.1877 98.7781 27.2558C99.7016 27.6256 100.034 28.0324 99.9971 29.0309C99.9233 31.5087 99.9971 34.0235 99.9971 36.7602H99.9233Z" fill="#FF8606"/>
</svg>
