<svg width="53" height="100" viewBox="0 0 53 100" fill="none" xmlns="http://www.w3.org/2000/svg">
<path d="M31.3081 66.7752C30.0285 70.9093 28.5849 74.945 27.5678 79.0463C26.8131 81.9992 26.5834 85.0833 26.1241 88.1347C25.7304 90.7595 25.4023 93.4171 24.9757 96.0419C24.582 98.6339 22.3181 100.307 19.7917 99.9135C17.3966 99.5526 15.6248 97.1903 15.9858 94.7295C16.8388 88.9877 17.5606 83.2131 18.6434 77.5042C19.234 74.4528 20.4151 71.4999 21.3338 68.4814C21.5307 67.8908 21.6619 67.2674 21.8916 66.6768C23.3024 63.4942 23.2696 60.1804 22.9415 56.8009C22.5478 52.7981 22.3509 48.7625 22.0885 44.7268C22.0556 44.005 21.8588 43.5128 21.2682 43.0535C19.7261 41.8723 18.2168 40.5599 16.6748 39.3459C13.689 37.0164 11.6876 34.0307 10.5393 30.4544C9.75182 27.9608 8.89876 25.4672 8.11131 22.9737C7.94726 22.4487 7.7504 22.219 7.19263 22.0878C4.83029 21.53 3.51789 19.7254 3.91161 17.3303C4.17409 15.7554 3.97723 14.7383 2.5992 13.5899C-0.517767 10.9979 -0.813059 6.24046 1.6149 2.95944C2.10705 2.30324 2.66482 1.81108 3.45227 1.58141C5.35526 1.08926 7.22544 0.597107 9.12843 0.104954C10.0799 -0.157527 10.9658 0.104954 11.7861 0.531486C15.7233 2.53291 17.3638 7.09352 15.5264 11.1292C15.1983 11.851 15.3296 12.2447 15.7561 12.7697C16.642 13.8524 17.6263 14.8695 17.6591 16.4116C17.6591 17.724 17.2982 18.8396 16.281 19.6598C15.7889 20.0535 15.7233 20.3816 15.9201 20.9722C16.7732 23.4986 17.5935 26.025 18.4465 28.5186C19.8574 32.587 24.0571 35.6384 28.2896 35.9665C31.4722 36.1962 34.6548 36.3274 37.7717 37.0492C39.5107 37.4429 40.9871 38.3288 42.1355 39.7068C43.3166 41.1177 44.4978 42.5613 45.7118 43.9722C48.6975 47.3844 50.2724 51.5185 51.552 55.7838C51.8145 56.6369 52.077 57.49 52.3066 58.343C52.9628 60.5741 51.8801 62.6412 49.6818 63.363C47.6804 64.0192 45.4493 62.9365 44.6947 60.8366C43.9728 58.868 43.3823 56.8338 42.6932 54.8651C42.1027 53.159 41.3808 51.5185 39.97 49.9436C39.8388 51.3873 39.7403 52.6341 39.6419 53.8808C39.4778 55.8495 39.3794 57.7852 39.2154 59.7539C39.1497 60.771 39.2154 61.6897 39.5763 62.674C41.0199 66.7096 42.3651 70.7781 43.8088 74.8137C45.0884 78.4229 45.3181 82.2616 46.0399 86.002C46.5977 88.9221 47.0242 91.8422 47.4835 94.7623C47.8773 97.2887 46.368 99.3558 43.8744 99.9135C41.7089 100.373 39.3138 98.962 38.7888 96.6325C38.1654 93.8108 37.5749 90.9892 37.2468 88.1347C36.4265 80.8508 33.9657 74.0591 31.5706 67.2346C31.5378 67.1362 31.4394 67.0705 31.3081 66.8409V66.7752ZM14.7718 16.6085C14.7718 15.6242 14.1156 15.1648 13.7219 14.5414C13.4922 14.1477 13.2625 14.0821 12.8688 14.3774C11.3267 15.4601 9.62058 15.8867 7.7504 15.7882C7.45511 15.7882 7.15982 15.7226 7.0942 16.1491C6.99577 16.8053 6.83171 17.4615 6.83171 18.1177C6.83171 18.6099 7.12701 19.0692 7.61916 19.2333C8.20974 19.463 8.20974 18.8068 8.4066 18.5443C9.58777 16.9038 11.6876 16.346 13.525 17.2319C14.4109 17.6584 14.7718 17.4287 14.7718 16.6085ZM2.76325 7.42162C2.76325 8.43874 2.99292 9.32461 3.38664 10.1777C3.68194 10.8011 4.17409 11.0964 4.83029 10.8011C5.4865 10.5058 5.65055 9.94801 5.35526 9.32461C4.76467 8.04502 4.83029 6.83104 5.61774 5.64988C6.04427 5.02648 5.78179 4.50152 5.25683 4.1078C4.63343 3.64845 4.17409 3.94375 3.78037 4.50152C3.12416 5.38739 2.79606 6.40451 2.76325 7.42162Z" fill="#FF8606"/>
<path d="M31.3737 33.7353C26.3209 33.7353 22.1212 29.5356 22.154 24.4501C22.154 19.3973 26.2881 15.296 31.3737 15.296C36.4921 15.296 40.5933 19.3973 40.5933 24.5485C40.5933 29.6669 36.5249 33.7682 31.3409 33.7682L31.3737 33.7353Z" fill="#FF8606"/>
</svg>
