<svg width="100" height="100" viewBox="0 0 100 100" fill="none" xmlns="http://www.w3.org/2000/svg">
<path d="M49.5645 100C34.3946 100 19.1886 100 4.01874 100C3.47567 100 2.89639 100 2.35332 99.8532C0.941327 99.4861 0 98.1645 0 96.696C0 95.2276 0.905122 94.0529 2.46193 93.6123C5.9738 92.6946 9.48568 91.8135 12.9975 90.9325C36.6755 84.9486 60.3535 79.0015 84.0677 73.0176C87.652 72.0998 91.2363 71.2188 94.8206 70.301C97.4997 69.6402 99.1651 70.9251 99.1651 73.7518C99.1651 81.1674 99.1651 88.6197 99.1651 96.0352C99.1651 98.7886 98.0428 99.9266 95.3274 99.9266C80.0852 99.9266 64.8067 99.9266 49.5645 99.9266V100Z" fill="#FF8606"/>
<path d="M45.9079 34.251C43.7356 37.8853 41.6357 41.3728 39.5358 44.8604C39.1376 45.5212 39.5358 45.5946 39.9341 45.7781C43.0839 47.0997 46.1975 48.3846 49.3474 49.7062C53.1851 51.3214 54.3074 54.8824 52.0265 58.3699C48.406 63.9866 44.7855 69.6034 41.1288 75.1834C39.8617 77.1291 38.0514 78.0101 35.8067 77.7165C33.5982 77.4228 32.1138 76.1012 31.4621 73.8985C30.9553 72.2099 31.2811 70.6313 32.2587 69.1996C34.6482 65.5652 36.9653 61.9308 39.3548 58.3332C39.7893 57.6724 39.7531 57.4154 38.9928 57.1217C34.2861 55.2128 29.6519 53.2304 24.9453 51.2847C21.5058 49.853 20.311 46.7326 21.9765 43.3185C24.6556 37.8119 27.3348 32.3053 30.014 26.7987C30.1588 26.4683 30.3398 26.1379 30.5932 25.6239C28.3485 25.9176 26.2486 26.1746 24.185 26.4316C23.7505 26.4683 23.6057 26.8721 23.3885 27.1291C21.4696 29.6254 19.6232 32.1217 17.6681 34.5814C16.3647 36.2333 14.3372 36.6372 12.4546 35.7928C10.6806 34.9485 9.66682 33.0028 9.99266 30.9837C10.1013 30.2128 10.4633 29.5887 10.8978 28.9646C13.2511 25.8442 15.6044 22.7238 17.9939 19.5667C18.8629 18.4286 19.949 17.8045 21.361 17.6577C24.8367 17.2539 28.3485 16.7766 31.8242 16.2627C34.6844 15.8589 37.3635 16.3361 39.8617 17.7678C42.5408 19.3097 45.22 20.925 47.8992 22.5402C49.9266 23.7517 51.4834 25.4404 52.5334 27.5696C53.6195 29.6988 54.7057 31.828 55.7556 33.994C56.0453 34.6181 56.3349 34.7649 57.0228 34.5446C58.7968 33.8838 60.5709 33.2965 62.3811 32.6724C64.9516 31.828 67.486 32.9661 68.2825 35.3523C69.1152 37.7752 67.848 40.2715 65.3137 41.1526C62.0191 42.2906 58.7606 43.4286 55.4298 44.4933C53.1127 45.2642 51.049 44.3097 49.8904 42.0336C48.587 39.5006 47.3561 36.9676 46.0165 34.2877L45.9079 34.251Z" fill="#FF8606"/>
<path d="M77.5145 49.0088C76.4646 49.0088 75.4509 49.0088 74.4009 49.0088C73.4596 49.0088 72.6631 48.5683 72.2286 47.6873C71.7942 46.8062 71.939 45.9251 72.4821 45.1542C77.7318 37.9589 83.0177 30.7636 88.2674 23.5683C89.1001 22.467 90.1862 22.1733 91.3086 22.6872C92.3585 23.2012 92.793 24.1557 92.5758 25.514C91.9241 29.7357 91.3086 33.9574 90.6569 38.1792C90.5121 39.0235 90.6569 39.3539 91.5982 39.3172C93.5533 39.2438 95.5084 39.3172 97.4996 39.3172C98.4772 39.3172 99.2375 39.6843 99.7081 40.5654C100.179 41.4831 100.07 42.3642 99.4547 43.2086C94.205 50.4039 88.9191 57.5992 83.6332 64.7945C82.8729 65.8224 81.7505 66.0793 80.6644 65.6021C79.6144 65.1249 79.1438 64.2071 79.3248 62.9222C79.9403 58.7372 80.592 54.5522 81.2436 50.3671C81.4609 49.0456 81.4609 49.0456 80.1213 49.0456C79.2162 49.0456 78.3473 49.0456 77.4421 49.0456L77.5145 49.0088Z" fill="#FF8606"/>
<path d="M17.2696 52.2761C19.1523 55.4699 22.3021 56.5345 25.3071 57.746C26.1036 58.0764 26.2846 58.2967 25.814 59.1043C21.5056 66.7401 17.2334 74.4127 12.9612 82.0485C11.332 84.9486 8.32702 85.8664 5.61166 84.2878C3.00491 82.8194 2.06358 79.4053 3.58418 76.652C8.07359 68.5757 12.6354 60.4993 17.2696 52.2394V52.2761Z" fill="#FF8606"/>
<path d="M60.4984 9.54479C60.4984 14.8311 56.2625 19.0529 51.0852 19.0162C45.9079 18.9794 41.7443 14.6843 41.7805 9.43466C41.8167 4.25845 46.0527 0 51.1938 0C56.3711 0 60.5346 4.25844 60.4984 9.54479Z" fill="#FF8606"/>
</svg>
