<svg width="302" height="48" viewBox="0 0 302 48" fill="none" xmlns="http://www.w3.org/2000/svg">
<g clip-path="url(#clip0_29_6)">
<path d="M2.20078 45.8508C2.07356 45.8685 1.94397 45.8567 1.82206 45.8161C1.70014 45.7755 1.58917 45.7073 1.49774 45.6168C1.40631 45.5263 1.33688 45.4159 1.29482 45.2941C1.25276 45.1724 1.2392 45.0425 1.2552 44.9147V3.06842C1.23707 2.9396 1.24903 2.80831 1.29013 2.68491C1.33124 2.56152 1.40037 2.4494 1.49207 2.3574C1.58377 2.26541 1.69552 2.19605 1.81852 2.15481C1.94151 2.11357 2.07237 2.10157 2.20078 2.11976H11.2675C18.8154 2.11976 24.454 3.4644 28.1833 6.15369C31.9126 8.84298 33.7759 12.9888 33.7731 18.5913C33.7731 24.1881 31.9475 28.3242 28.2963 30.9995C24.6451 33.6748 19.1487 35.0195 11.8072 35.0334H11.7528C11.6865 35.0216 11.6182 35.026 11.5539 35.0462C11.4896 35.0665 11.4312 35.1021 11.3835 35.1499C11.3359 35.1977 11.3004 35.2563 11.2802 35.3208C11.26 35.3854 11.2556 35.4538 11.2675 35.5204V44.9147C11.284 45.0404 11.2718 45.1683 11.232 45.2887C11.1922 45.4091 11.1256 45.5188 11.0375 45.6097C10.9493 45.7006 10.8417 45.7703 10.7229 45.8135C10.604 45.8567 10.4769 45.8723 10.3512 45.8592L2.20078 45.8508ZM11.2675 25.8784C11.2675 26.1848 11.4265 26.3401 11.7528 26.3401H13.6691C14.9476 26.3581 16.2239 26.2271 17.4723 25.9498C18.5089 25.712 19.4932 25.2852 20.376 24.6905C21.2387 24.1008 21.9141 23.2746 22.3216 22.3104C22.8021 21.1515 23.0372 19.905 23.0119 18.6501C23.0119 13.4926 19.8976 10.9138 13.6691 10.9138H11.7528C11.4265 10.9138 11.2675 11.0649 11.2675 11.3714V25.8784Z" stroke="black" stroke-width="3" stroke-miterlimit="10"/>
<path d="M67.5839 42.522C64.5519 45.3205 60.4418 46.7197 55.2537 46.7197C50.0656 46.7197 45.9569 45.3205 42.9277 42.522C39.8957 39.7236 38.3797 35.5819 38.3797 30.097V3.00967C38.3717 2.88263 38.3907 2.75534 38.4357 2.6363C38.4806 2.51727 38.5504 2.40923 38.6403 2.31943C38.7302 2.22962 38.8382 2.16011 38.9571 2.11554C39.0759 2.07097 39.2029 2.05238 39.3295 2.061H47.4799C47.6079 2.04353 47.7383 2.05606 47.8608 2.09763C47.9832 2.13919 48.0944 2.20865 48.1856 2.30055C48.2768 2.39246 48.3455 2.50432 48.3864 2.62735C48.4273 2.75038 48.4392 2.88124 48.4213 3.00967V29.5807C48.4213 35.1076 50.7001 37.8725 55.2579 37.8753C59.8156 37.8781 62.1043 35.1132 62.1238 29.5807V3.00967C62.1058 2.88124 62.1177 2.75038 62.1586 2.62735C62.1995 2.50432 62.2682 2.39246 62.3594 2.30055C62.4506 2.20865 62.5618 2.13919 62.6843 2.09763C62.8067 2.05606 62.9371 2.04353 63.0652 2.061H71.1905C71.3165 2.05537 71.4423 2.07554 71.5603 2.12029C71.6782 2.16503 71.7859 2.23341 71.8767 2.32125C71.9635 2.41267 72.0309 2.52083 72.0747 2.63917C72.1186 2.75751 72.138 2.88356 72.1319 3.00967V30.097C72.1291 35.5707 70.6131 39.7124 67.5839 42.522Z" stroke="black" stroke-width="3" stroke-miterlimit="10"/>
<path d="M79.1359 3.06849C79.1359 2.43464 79.4706 2.11982 80.1359 2.11982H88.2821C88.4105 2.10163 88.5414 2.11363 88.6643 2.15487C88.7873 2.19611 88.8991 2.26547 88.9908 2.35746C89.0825 2.44946 89.1516 2.56158 89.1927 2.68498C89.2338 2.80837 89.2458 2.93966 89.2277 3.06849V36.3264C89.2277 36.6496 89.3783 36.8133 89.6837 36.8133H104.181C104.307 36.7961 104.435 36.8077 104.555 36.8474C104.676 36.887 104.786 36.9536 104.877 37.0422C104.968 37.1308 105.038 37.2389 105.081 37.3585C105.124 37.4781 105.14 37.606 105.127 37.7326L105.018 44.9148C105.018 45.5444 104.734 45.8592 104.16 45.8592H80.1359C80.0082 45.8765 79.8782 45.8641 79.7561 45.8227C79.6341 45.7814 79.5231 45.7123 79.432 45.6209C79.3409 45.5295 79.2721 45.4182 79.2309 45.2957C79.1897 45.1732 79.1772 45.0429 79.1945 44.9148L79.1359 3.06849Z" stroke="black" stroke-width="3" stroke-miterlimit="10"/>
<path d="M127.992 46.7407C124.329 46.7578 120.697 46.0666 117.294 44.7048C114.067 43.4471 111.17 41.464 108.825 38.9079C108.738 38.817 108.671 38.7093 108.626 38.5913C108.582 38.4733 108.562 38.3476 108.567 38.2216C108.573 38.0956 108.604 37.9721 108.658 37.8584C108.712 37.7448 108.789 37.6434 108.884 37.5605L114.403 31.8769C114.479 31.7743 114.579 31.692 114.694 31.6373C114.809 31.5825 114.935 31.5569 115.063 31.5627C115.19 31.5685 115.314 31.6055 115.423 31.6705C115.533 31.7356 115.625 31.8266 115.691 31.9356C119.635 36.3152 123.868 38.5049 128.39 38.5049C129.588 38.5705 130.771 38.2158 131.737 37.5017C132.128 37.1974 132.444 36.8055 132.657 36.3573C132.871 35.909 132.977 35.4169 132.967 34.9201C132.985 34.1326 132.782 33.3558 132.381 32.6786C131.988 32.049 131.151 31.3172 129.871 30.4832C128.094 29.4045 126.231 28.475 124.302 27.7044C120.562 26.1177 117.658 24.6065 115.591 23.171C113.524 21.7354 112.055 20.2228 111.185 18.6333C110.285 16.9153 109.837 14.995 109.884 13.0546C109.884 9.69653 111.279 6.8981 114.068 4.65936C116.857 2.42062 120.623 1.29145 125.365 1.27187C128.421 1.25995 131.455 1.78416 134.331 2.82079C137.037 3.77247 139.536 5.23747 141.691 7.13597C142.168 7.55573 142.184 8.01327 141.749 8.51279L136.816 13.7682C136.398 14.23 135.98 14.2468 135.473 13.827C132.04 10.8047 128.387 9.29355 124.515 9.29355C123.163 9.29355 122.114 9.58599 121.369 10.1709C121.027 10.4123 120.748 10.7322 120.554 11.1038C120.361 11.4755 120.259 11.8881 120.256 12.3075C120.239 12.9801 120.44 13.6402 120.829 14.188C121.211 14.7141 122.087 15.3829 123.457 16.1945C125.445 17.309 127.499 18.3014 129.607 19.1664C131.935 20.1285 134.186 21.2651 136.344 22.5665C137.94 23.5124 139.378 24.7036 140.607 26.0967C141.571 27.2055 142.318 28.4873 142.808 29.8746C143.257 31.2693 143.475 32.7285 143.452 34.194C143.498 35.9552 143.122 37.7019 142.356 39.2871C141.589 40.8722 140.454 42.2494 139.046 43.3028C136.118 45.5947 132.433 46.7407 127.992 46.7407Z" stroke="black" stroke-width="3" stroke-miterlimit="10"/>
<path d="M150.205 45.8508C150.077 45.8715 149.945 45.8618 149.821 45.8225C149.697 45.7832 149.584 45.7155 149.49 45.6246C149.397 45.5337 149.326 45.4222 149.283 45.299C149.24 45.1758 149.226 45.0442 149.243 44.9147V3.06847C149.224 2.93803 149.236 2.80499 149.278 2.68011C149.32 2.55523 149.391 2.44203 149.484 2.34966C149.578 2.25729 149.692 2.18834 149.817 2.14841C149.943 2.10848 150.075 2.09868 150.205 2.1198H176.091C176.219 2.10233 176.35 2.11486 176.472 2.15643C176.595 2.19799 176.706 2.26745 176.797 2.35936C176.888 2.45126 176.957 2.56312 176.998 2.68615C177.039 2.80918 177.051 2.94004 177.033 3.06847L176.978 9.83926C176.997 9.96178 176.988 10.0871 176.95 10.2052C176.913 10.3234 176.849 10.4313 176.763 10.5204C176.677 10.6095 176.572 10.6774 176.455 10.7187C176.339 10.76 176.214 10.7737 176.091 10.7585H159.774C159.468 10.7585 159.318 10.9181 159.318 11.2455V18.7634C159.312 18.825 159.32 18.887 159.341 18.9452C159.361 19.0034 159.395 19.0562 159.438 19.0999C159.482 19.1436 159.535 19.1771 159.593 19.1981C159.651 19.219 159.712 19.2268 159.774 19.221H171.845C171.973 19.2028 172.104 19.2148 172.227 19.256C172.35 19.2973 172.462 19.3666 172.553 19.4586C172.645 19.5506 172.714 19.6627 172.755 19.7861C172.796 19.9095 172.808 20.0408 172.79 20.1696V26.6256C172.808 26.7544 172.796 26.8857 172.755 27.0091C172.714 27.1325 172.645 27.2446 172.553 27.3366C172.462 27.4286 172.35 27.498 172.227 27.5392C172.104 27.5805 171.973 27.5925 171.845 27.5743H159.736C159.431 27.5743 159.28 27.7338 159.28 28.0612V36.7545C159.274 36.8161 159.282 36.8781 159.303 36.9363C159.324 36.9945 159.357 37.0473 159.401 37.091C159.444 37.1347 159.497 37.1682 159.555 37.1892C159.613 37.2101 159.675 37.2179 159.736 37.2121H176.669C176.797 37.1939 176.928 37.2059 177.051 37.2471C177.174 37.2884 177.286 37.3577 177.377 37.4497C177.469 37.5417 177.538 37.6538 177.579 37.7772C177.62 37.9006 177.632 38.0319 177.614 38.1607V44.9147C177.632 45.0432 177.619 45.174 177.578 45.2969C177.536 45.4197 177.467 45.5313 177.376 45.6228C177.284 45.7143 177.172 45.7832 177.05 45.8243C176.927 45.8653 176.797 45.8772 176.669 45.8592L150.205 45.8508Z" stroke="black" stroke-width="3" stroke-miterlimit="10"/>
<path d="M184.095 3.06849C184.095 2.43464 184.426 2.11982 185.095 2.11982H193.246C193.374 2.10163 193.505 2.11363 193.628 2.15487C193.751 2.19611 193.863 2.26547 193.954 2.35746C194.046 2.44946 194.115 2.56158 194.156 2.68498C194.197 2.80837 194.209 2.93966 194.191 3.06849V18.3059C194.185 18.3675 194.193 18.4295 194.214 18.4877C194.235 18.5459 194.268 18.5987 194.312 18.6424C194.356 18.6861 194.408 18.7196 194.466 18.7405C194.524 18.7615 194.586 18.7693 194.647 18.7635H209.12C209.181 18.77 209.244 18.7626 209.302 18.742C209.361 18.7214 209.414 18.688 209.458 18.6442C209.502 18.6004 209.536 18.5473 209.557 18.4888C209.578 18.4303 209.586 18.3678 209.58 18.3059V3.06849C209.562 2.94006 209.574 2.8092 209.615 2.68617C209.656 2.56314 209.724 2.45128 209.816 2.35938C209.907 2.26747 210.018 2.19801 210.14 2.15645C210.263 2.11488 210.393 2.10235 210.521 2.11982H218.655C218.781 2.10656 218.909 2.12224 219.028 2.16568C219.147 2.20911 219.255 2.27917 219.343 2.37055C219.431 2.46193 219.498 2.57225 219.537 2.69316C219.577 2.81407 219.588 2.94241 219.571 3.06849L219.517 44.9147C219.517 45.5444 219.228 45.8592 218.655 45.8592H210.505C210.377 45.8765 210.247 45.864 210.125 45.8227C210.003 45.7814 209.892 45.7123 209.801 45.6209C209.71 45.5295 209.641 45.4182 209.6 45.2957C209.558 45.1732 209.546 45.0429 209.563 44.9147V28.2333C209.563 27.9059 209.408 27.7464 209.103 27.7464H194.576C194.51 27.7338 194.441 27.7376 194.376 27.7575C194.311 27.7774 194.252 27.8128 194.204 27.8608C194.156 27.9087 194.12 27.9676 194.099 28.0325C194.079 28.0974 194.075 28.1664 194.087 28.2333V44.9147C194.087 45.5444 193.802 45.8592 193.229 45.8592H185.079C184.951 45.8773 184.82 45.8653 184.697 45.8243C184.575 45.7833 184.463 45.7143 184.372 45.6228C184.28 45.5313 184.211 45.4198 184.169 45.2969C184.128 45.1741 184.116 45.0433 184.133 44.9147L184.095 3.06849Z" stroke="black" stroke-width="3" stroke-miterlimit="10"/>
<path d="M255.78 42.522C252.75 45.3205 248.642 46.7197 243.453 46.7197C238.265 46.7197 234.157 45.3205 231.127 42.522C228.095 39.7236 226.579 35.5819 226.579 30.097V3.00967C226.571 2.88301 226.59 2.7561 226.635 2.63737C226.68 2.51865 226.749 2.41084 226.839 2.3211C226.928 2.23136 227.036 2.16175 227.154 2.1169C227.272 2.07206 227.399 2.053 227.525 2.061H235.675C235.804 2.04353 235.934 2.05606 236.056 2.09763C236.179 2.13919 236.29 2.20865 236.381 2.30055C236.472 2.39246 236.541 2.50432 236.582 2.62735C236.623 2.75038 236.635 2.88124 236.617 3.00967V29.5807C236.617 35.1076 238.896 37.8725 243.453 37.8753C248.011 37.8781 250.3 35.1132 250.319 29.5807V3.00967C250.301 2.88124 250.313 2.75038 250.354 2.62735C250.395 2.50432 250.464 2.39246 250.555 2.30055C250.646 2.20865 250.757 2.13919 250.88 2.09763C251.002 2.05606 251.133 2.04353 251.261 2.061H259.407C259.533 2.05537 259.659 2.07554 259.777 2.12029C259.895 2.16503 260.002 2.23341 260.093 2.32125C260.18 2.41267 260.247 2.52083 260.291 2.63917C260.335 2.75751 260.355 2.88356 260.348 3.00967V30.097C260.334 35.5707 258.812 39.7124 255.78 42.522Z" stroke="black" stroke-width="3" stroke-miterlimit="10"/>
<path d="M268.281 45.8508C268.156 45.8651 268.028 45.8506 267.909 45.8085C267.79 45.7663 267.682 45.6977 267.593 45.6076C267.504 45.5175 267.436 45.4084 267.395 45.2884C267.355 45.1684 267.341 45.0406 267.357 44.9148V3.06849C267.338 2.93966 267.35 2.80837 267.392 2.68498C267.433 2.56158 267.502 2.44946 267.593 2.35746C267.685 2.26547 267.797 2.19611 267.92 2.15487C268.043 2.11363 268.174 2.10163 268.302 2.11982H282.603C287.903 2.11982 291.968 3.12445 294.799 5.13372C297.631 7.14299 299.046 9.96381 299.046 13.5962C299.046 17.7099 297.274 20.7881 293.728 22.831C293.423 23.0199 293.444 23.2046 293.787 23.3767C298.439 25.3356 300.766 28.7972 300.766 33.7616C300.766 37.741 299.325 40.7549 296.444 42.8033C293.562 44.8518 289.434 45.8746 284.059 45.8718L268.281 45.8508ZM277.348 19.0489C277.337 19.1139 277.341 19.1805 277.361 19.2435C277.38 19.3065 277.414 19.364 277.459 19.4114C277.505 19.4588 277.561 19.4948 277.623 19.5164C277.685 19.538 277.751 19.5447 277.817 19.5358H282.754C284.528 19.5358 285.896 19.1538 286.858 18.3899C287.82 17.6259 288.302 16.5135 288.302 15.0611C288.302 13.6088 287.82 12.4964 286.858 11.7324C285.896 10.9684 284.528 10.5865 282.754 10.5865H277.817C277.75 10.5746 277.682 10.579 277.618 10.5992C277.553 10.6195 277.495 10.6551 277.447 10.7029C277.4 10.7507 277.364 10.8094 277.344 10.8739C277.324 10.9384 277.319 11.0068 277.331 11.0734L277.348 19.0489ZM277.348 36.9266C277.348 37.2331 277.507 37.3842 277.833 37.3842H283.44C285.593 37.3842 287.218 36.9448 288.314 36.0661C289.41 35.1874 289.959 33.9281 289.959 32.2883C289.959 28.9973 287.786 27.3518 283.44 27.3518H277.817C277.49 27.3518 277.331 27.5029 277.331 27.8094L277.348 36.9266Z" stroke="black" stroke-width="3" stroke-miterlimit="10"/>
</g>
<defs>
<clipPath id="clip0_29_6">
<rect width="302" height="48" fill="white"/>
</clipPath>
</defs>
</svg>
