<svg width="100" height="100" viewBox="0 0 100 100" fill="none" xmlns="http://www.w3.org/2000/svg">
<path d="M77.386 47.578C78.7792 45.5797 80.4927 43.8949 82.7912 42.7979C83.7386 42.3538 84.6997 41.962 85.8004 42.2624C87.1377 42.6281 88.0153 43.451 88.2521 44.7438C88.489 46.0759 88.0433 47.3297 86.7337 47.8914C83.3068 49.354 82.0808 52.1881 81.1195 55.2311C80.7991 56.2368 80.618 57.2685 80.3534 58.4308C82.5404 57.8823 84.6441 57.5819 86.7615 57.8823C95.1898 59.0577 100.637 65.418 99.9402 73.4369C99.3551 80.1367 97.2655 86.4316 93.7131 92.2956C92.8354 93.7323 91.8045 95.0644 90.6344 96.3181C87.5974 99.5962 83.878 100.811 79.4339 99.4525C77.5393 98.8779 75.7979 98.7996 73.9313 99.4525C72.5243 99.9357 70.9918 99.988 69.4872 99.988C47.6436 99.988 25.8 99.988 3.95643 99.988C1.30954 99.988 0 98.7733 0 96.3181C0 67.5076 0 38.6839 0 9.87344C0 7.44431 1.26785 6.24285 3.84505 6.24285C11.312 6.24285 18.7788 6.24285 26.2458 6.24285C26.9285 6.24285 27.2629 6.09917 27.5831 5.47229C29.4221 1.91989 32.5147 0 36.7078 0C40.8593 0 43.9102 1.91989 45.7212 5.44606C46.0555 6.09917 46.4318 6.25589 47.156 6.25589C55.5982 6.22965 64.0404 6.24285 72.4824 6.24285C75.4914 6.24285 76.6477 7.31365 76.6477 10.1085C76.6477 22.0063 76.6477 33.891 76.6477 45.7887C76.6477 46.4677 76.6477 47.1208 77.386 47.591V47.578ZM62.6193 58.8226C61.3655 57.608 60.4461 56.3021 59.8193 54.8133C58.4958 51.6396 58.2729 48.3093 58.3704 44.9528C58.4262 43.3464 59.9307 42.171 61.7278 42.158C64.2075 42.1319 66.6871 42.2494 69.1112 42.7849C69.8635 42.9546 70.0306 42.8109 70.0306 42.0926C70.0027 32.5196 70.0027 22.9466 70.0306 13.3735C70.0306 12.6553 69.8635 12.4072 69.0554 12.4202C65.2662 12.4593 61.4771 12.4593 57.6878 12.4202C56.9217 12.4202 56.657 12.5769 56.6709 13.3475C56.7126 16.051 56.7126 18.7673 56.6709 21.4708C56.657 23.6781 55.3056 24.9579 52.9652 24.9579C42.0852 24.9579 31.1913 24.9709 20.3113 24.9579C18.0265 24.9579 16.6753 23.6648 16.6614 21.5361C16.6614 18.7935 16.6336 16.051 16.6753 13.3082C16.6753 12.616 16.4942 12.4202 15.742 12.4332C13.0812 12.4725 10.4065 12.4855 7.7457 12.4332C6.82628 12.4072 6.64503 12.7076 6.64503 13.5042C6.65893 39.8986 6.67301 66.293 6.64503 92.6743C6.64503 93.4579 6.79829 93.7191 7.71771 93.7191C24.9503 93.693 42.1688 93.693 59.4014 93.693C59.7077 93.693 60.0562 93.7844 60.3486 93.5886C60.3347 93.484 60.3486 93.4056 60.3069 93.3535C56.4479 87.4894 54.3026 81.064 53.4389 74.2596C52.8677 69.78 53.9682 65.7445 57.2699 62.3357C58.7466 60.8078 60.5436 59.6976 62.6054 58.8096L62.6193 58.8226ZM93.3369 72.4703C93.4484 69.9107 92.5707 67.7427 90.5508 66.0449C87.3188 63.3284 82.624 63.3937 79.3085 66.1623C77.4418 67.7165 75.9234 67.7295 74.0566 66.1755C73.973 66.1102 73.8894 66.0318 73.8058 65.9665C71.2844 64.0075 68.4284 63.472 65.3916 64.5951C62.3407 65.7184 60.488 67.9125 60.0979 71.0077C59.8054 73.3323 60.2511 75.644 60.8362 77.9033C62.1039 82.8923 63.9427 87.6331 67.3141 91.7731C68.7628 93.5493 70.5042 94.2676 72.6775 93.3012C75.4078 92.0866 77.9852 92.1128 80.7155 93.3012C82.9028 94.2676 84.658 93.5363 86.065 91.7471C90.5786 86.0006 92.6823 79.4705 93.3649 72.4703H93.3369ZM36.5965 18.7282C40.7898 18.7282 44.9968 18.7282 49.19 18.7282C49.789 18.7282 50.0398 18.6238 50.012 17.9969C49.9562 16.3774 49.9701 14.758 50.012 13.1515C50.012 12.59 49.8307 12.4332 49.2456 12.4463C47.6019 12.4855 45.9442 12.4463 44.3003 12.4463C41.333 12.4463 40.4693 11.7541 39.9956 9.01149C39.6891 7.26152 38.2961 6.16449 36.499 6.24285C34.7993 6.32121 33.5039 7.54872 33.3506 9.2596C33.1695 11.3492 31.9436 12.4332 29.7146 12.4593C27.9454 12.4725 26.1902 12.4986 24.4349 12.4463C23.6269 12.4202 23.3064 12.5769 23.3481 13.4128C23.4319 14.8886 23.4178 16.3644 23.3481 17.8402C23.3064 18.6106 23.585 18.7543 24.3513 18.7412C28.433 18.7022 32.5286 18.7282 36.6104 18.7282H36.5965ZM66.1161 48.6357C65.5169 48.5836 65.1967 48.4267 65.1826 48.9884C65.0851 52.828 67.3002 55.3225 71.368 55.8971C72.631 56.08 73.1698 55.5706 72.9839 54.3692C72.5521 51.6396 71.2564 49.6023 68.1638 48.9884C67.3976 48.8317 66.6176 48.7271 66.13 48.6357H66.1161Z" fill="#FF8606"/>
<path d="M38.2403 42.1579C34.5348 42.1579 30.8153 42.1579 27.1096 42.1579C24.8667 42.1579 23.39 40.9302 23.3622 39.0757C23.3344 37.2081 24.8111 35.902 27.026 35.902C34.6043 35.889 42.169 35.889 49.7473 35.902C51.7255 35.902 53.1185 37.0514 53.3414 38.7362C53.5366 40.225 52.3803 41.7138 50.7225 42.0796C50.3324 42.171 49.9006 42.1579 49.4966 42.1579C45.7492 42.1579 42.0018 42.1579 38.2542 42.1579H38.2403Z" fill="#FF8606"/>
<path d="M38.2822 54.6435C34.5346 54.6435 30.7872 54.6435 27.0399 54.6435C24.8109 54.6435 23.3483 53.3766 23.3483 51.5222C23.3483 49.6937 24.797 48.4399 26.9702 48.4399C34.5346 48.4399 42.1132 48.4399 49.6776 48.4399C51.823 48.4399 53.3136 49.7198 53.3414 51.509C53.3692 53.3375 51.8369 54.6435 49.6357 54.6435C45.8466 54.6435 42.0713 54.6435 38.2822 54.6435Z" fill="#FF8606"/>
<path d="M35.0085 73.4108C37.6693 73.4108 40.3301 73.4108 43.0048 73.4108C45.1502 73.4108 46.6269 74.6645 46.6547 76.4928C46.6827 78.3213 45.2338 79.6665 43.1025 79.6665C37.6971 79.6925 32.2919 79.6925 26.9007 79.6665C24.7694 79.6665 23.3346 78.3083 23.3763 76.4668C23.4181 74.6515 24.8808 73.4108 27.0401 73.4108C29.7008 73.4108 32.3616 73.4108 35.0363 73.4108H35.0085Z" fill="#FF8606"/>
<path d="M35.0223 60.9253C37.6831 60.9253 40.3438 60.9253 43.0046 60.9253C45.1639 60.9253 46.6267 62.179 46.6406 63.9945C46.6545 65.8228 45.2197 67.1289 43.0743 67.1419C37.6692 67.1549 32.2779 67.1549 26.8727 67.1419C24.7412 67.1419 23.3064 65.8098 23.3483 63.9683C23.39 62.1923 24.8389 60.9515 26.9146 60.9383C29.6171 60.9383 32.3198 60.9383 35.0084 60.9383L35.0223 60.9253Z" fill="#FF8606"/>
<path d="M20.0187 39.0104C20.0326 40.669 18.542 42.1187 16.7589 42.171C14.9339 42.2231 13.3457 40.7866 13.3179 39.0757C13.2901 37.3779 14.8782 35.8891 16.6892 35.9151C18.4723 35.9282 19.9909 37.3518 20.0187 39.0234V39.0104Z" fill="#FF8606"/>
<path d="M13.318 76.5452C13.318 74.8864 14.8086 73.4369 16.5917 73.4106C18.4166 73.3715 20.0047 74.8081 20.0186 76.5189C20.0327 78.2168 18.4444 79.6926 16.6336 79.6795C14.8503 79.6533 13.3319 78.2298 13.318 76.5582V76.5452Z" fill="#FF8606"/>
<path d="M16.5777 54.6433C14.7947 54.6042 13.3041 53.1675 13.318 51.5089C13.346 49.785 14.9061 48.4006 16.759 48.4399C18.5699 48.479 20.0327 49.9027 20.0188 51.5743C19.991 53.2982 18.4446 54.6826 16.5777 54.6433Z" fill="#FF8606"/>
<path d="M16.731 60.9253C18.528 60.9513 20.0186 62.3618 20.0186 64.0336C20.0186 65.7575 18.4724 67.1549 16.6056 67.1289C14.8086 67.1026 13.318 65.6922 13.318 64.0206C13.318 62.3097 14.8781 60.8992 16.731 60.9253Z" fill="#FF8606"/>
</svg>
