<?xml version="1.0" encoding="UTF-8"?>
<svg id="Camada_2" data-name="Camada 2" xmlns="http://www.w3.org/2000/svg" xmlns:xlink="http://www.w3.org/1999/xlink" viewBox="0 0 302 48">
  <defs>
    <style>
      .cls-1 {
        stroke: #fff;
        stroke-miterlimit: 10;
        stroke-width: 3px;
      }

      .cls-1, .cls-2 {
        fill: none;
      }

      .cls-3 {
        clip-path: url(#clippath);
      }
    </style>
    <clipPath id="clippath">
      <rect class="cls-2" width="302" height="48"/>
    </clipPath>
  </defs>
  <g id="Camada_1-2" data-name="Camada 1">
    <g class="cls-3">
      <g>
        <path class="cls-1" d="M2.2,45.85c-.13,.02-.26,0-.38-.03-.12-.04-.23-.11-.32-.2-.09-.09-.16-.2-.2-.32-.04-.12-.06-.25-.04-.38V3.07c-.02-.13,0-.26,.03-.38,.04-.12,.11-.24,.2-.33,.09-.09,.2-.16,.33-.2,.12-.04,.25-.05,.38-.04H11.27c7.55,0,13.19,1.34,16.92,4.03,3.73,2.69,5.59,6.84,5.59,12.44,0,5.6-1.83,9.73-5.48,12.41-3.65,2.68-9.15,4.02-16.49,4.03h-.05c-.07-.01-.13,0-.2,.01-.06,.02-.12,.06-.17,.1-.05,.05-.08,.11-.1,.17-.02,.06-.02,.13-.01,.2v9.39c.02,.13,0,.25-.04,.37-.04,.12-.11,.23-.19,.32-.09,.09-.2,.16-.31,.2-.12,.04-.25,.06-.37,.05H2.2ZM11.27,25.88c0,.31,.16,.46,.49,.46h1.92c1.28,.02,2.55-.11,3.8-.39,1.04-.24,2.02-.66,2.9-1.26,.86-.59,1.54-1.42,1.95-2.38,.48-1.16,.72-2.41,.69-3.66,0-5.16-3.11-7.74-9.34-7.74h-1.92c-.33,0-.49,.15-.49,.46v14.51Z"/>
        <path class="cls-1" d="M67.58,42.52c-3.03,2.8-7.14,4.2-12.33,4.2s-9.3-1.4-12.33-4.2c-3.03-2.8-4.55-6.94-4.55-12.42V3.01c0-.13,.01-.25,.06-.37,.04-.12,.11-.23,.2-.32,.09-.09,.2-.16,.32-.2,.12-.04,.25-.06,.37-.05h8.15c.13-.02,.26,0,.38,.04,.12,.04,.23,.11,.32,.2,.09,.09,.16,.2,.2,.33,.04,.12,.05,.25,.03,.38V29.58c0,5.53,2.28,8.29,6.84,8.29,4.56,0,6.85-2.76,6.87-8.29V3.01c-.02-.13,0-.26,.03-.38,.04-.12,.11-.23,.2-.33,.09-.09,.2-.16,.32-.2,.12-.04,.25-.05,.38-.04h8.13c.13,0,.25,.01,.37,.06,.12,.04,.23,.11,.32,.2,.09,.09,.15,.2,.2,.32,.04,.12,.06,.24,.06,.37V30.1c0,5.47-1.52,9.62-4.55,12.42Z"/>
        <path class="cls-1" d="M79.14,3.07c0-.63,.33-.95,1-.95h8.15c.13-.02,.26,0,.38,.04,.12,.04,.23,.11,.33,.2,.09,.09,.16,.2,.2,.33,.04,.12,.05,.25,.03,.38V36.33c0,.32,.15,.49,.46,.49h14.5c.13-.02,.25,0,.37,.03,.12,.04,.23,.11,.32,.19,.09,.09,.16,.2,.2,.32,.04,.12,.06,.25,.05,.37l-.11,7.18c0,.63-.28,.94-.86,.94h-24.02c-.13,.02-.26,0-.38-.04-.12-.04-.23-.11-.32-.2s-.16-.2-.2-.33c-.04-.12-.05-.25-.04-.38l-.06-41.85Z"/>
        <path class="cls-1" d="M127.99,46.74c-3.66,.02-7.29-.67-10.7-2.04-3.23-1.26-6.12-3.24-8.47-5.8-.09-.09-.15-.2-.2-.32-.04-.12-.06-.24-.06-.37,0-.13,.04-.25,.09-.36,.05-.11,.13-.22,.23-.3l5.52-5.68c.08-.1,.18-.18,.29-.24,.11-.05,.24-.08,.37-.07,.13,0,.25,.04,.36,.11,.11,.07,.2,.16,.27,.27,3.94,4.38,8.18,6.57,12.7,6.57,1.2,.07,2.38-.29,3.35-1,.39-.3,.71-.7,.92-1.14,.21-.45,.32-.94,.31-1.44,.02-.79-.18-1.56-.59-2.24-.39-.63-1.23-1.36-2.51-2.2-1.78-1.08-3.64-2.01-5.57-2.78-3.74-1.59-6.64-3.1-8.71-4.53-2.07-1.44-3.54-2.95-4.41-4.54-.9-1.72-1.35-3.64-1.3-5.58,0-3.36,1.39-6.16,4.18-8.4s6.56-3.37,11.3-3.39c3.06-.01,6.09,.51,8.97,1.55,2.71,.95,5.21,2.42,7.36,4.32,.48,.42,.49,.88,.06,1.38l-4.93,5.26c-.42,.46-.84,.48-1.34,.06-3.43-3.02-7.09-4.53-10.96-4.53-1.35,0-2.4,.29-3.15,.88-.34,.24-.62,.56-.82,.93-.19,.37-.29,.78-.3,1.2-.02,.67,.18,1.33,.57,1.88,.38,.53,1.26,1.19,2.63,2.01,1.99,1.11,4.04,2.11,6.15,2.97,2.33,.96,4.58,2.1,6.74,3.4,1.6,.95,3.03,2.14,4.26,3.53,.96,1.11,1.71,2.39,2.2,3.78,.45,1.39,.67,2.85,.64,4.32,.05,1.76-.33,3.51-1.1,5.09-.77,1.59-1.9,2.96-3.31,4.02-2.93,2.29-6.61,3.44-11.05,3.44Z"/>
        <path class="cls-1" d="M150.21,45.85c-.13,.02-.26,.01-.38-.03-.12-.04-.24-.11-.33-.2-.09-.09-.16-.2-.21-.33s-.06-.25-.04-.38V3.07c-.02-.13,0-.26,.04-.39s.11-.24,.21-.33c.09-.09,.21-.16,.33-.2,.13-.04,.26-.05,.39-.03h25.89c.13-.02,.26,0,.38,.04,.12,.04,.23,.11,.32,.2,.09,.09,.16,.2,.2,.33,.04,.12,.05,.25,.04,.38l-.06,6.77c.02,.12,.01,.25-.03,.37-.04,.12-.1,.23-.19,.32s-.19,.16-.31,.2c-.12,.04-.24,.05-.36,.04h-16.32c-.31,0-.46,.16-.46,.49v7.52c0,.06,0,.12,.02,.18,.02,.06,.05,.11,.1,.15,.04,.04,.1,.08,.15,.1,.06,.02,.12,.03,.18,.02h12.07c.13-.02,.26,0,.38,.03,.12,.04,.24,.11,.33,.2,.09,.09,.16,.2,.2,.33s.05,.25,.03,.38v6.46c.02,.13,0,.26-.03,.38s-.11,.24-.2,.33c-.09,.09-.2,.16-.33,.2-.12,.04-.25,.05-.38,.04h-12.11c-.3,0-.46,.16-.46,.49v8.69c0,.06,0,.12,.02,.18,.02,.06,.05,.11,.1,.15,.04,.04,.1,.08,.15,.1,.06,.02,.12,.03,.18,.02h16.93c.13-.02,.26,0,.38,.03,.12,.04,.24,.11,.33,.2,.09,.09,.16,.2,.2,.33,.04,.12,.05,.25,.04,.38v6.75c.02,.13,0,.26-.04,.38-.04,.12-.11,.23-.2,.33-.09,.09-.2,.16-.33,.2-.12,.04-.25,.05-.38,.03h-26.46Z"/>
        <path class="cls-1" d="M184.1,3.07c0-.63,.33-.95,1-.95h8.15c.13-.02,.26,0,.38,.04s.24,.11,.33,.2c.09,.09,.16,.2,.2,.33,.04,.12,.05,.25,.03,.38v15.24c0,.06,0,.12,.02,.18,.02,.06,.05,.11,.1,.15,.04,.04,.1,.08,.15,.1,.06,.02,.12,.03,.18,.02h14.47c.06,0,.12,0,.18-.02,.06-.02,.11-.05,.16-.1,.04-.04,.08-.1,.1-.16,.02-.06,.03-.12,.02-.18V3.07c-.02-.13,0-.26,.04-.38,.04-.12,.11-.23,.2-.33,.09-.09,.2-.16,.32-.2,.12-.04,.25-.05,.38-.04h8.13c.13-.01,.25,0,.37,.05,.12,.04,.23,.11,.32,.2,.09,.09,.15,.2,.19,.32,.04,.12,.05,.25,.03,.38l-.05,41.85c0,.63-.29,.94-.86,.94h-8.15c-.13,.02-.26,0-.38-.04-.12-.04-.23-.11-.32-.2-.09-.09-.16-.2-.2-.33-.04-.12-.05-.25-.04-.38V28.23c0-.33-.15-.49-.46-.49h-14.53c-.07-.01-.14,0-.2,.01-.07,.02-.12,.06-.17,.1-.05,.05-.08,.11-.1,.17-.02,.06-.02,.13-.01,.2v16.68c0,.63-.29,.94-.86,.94h-8.15c-.13,.02-.26,0-.38-.03-.12-.04-.23-.11-.33-.2-.09-.09-.16-.2-.2-.33-.04-.12-.05-.25-.04-.38l-.04-41.85Z"/>
        <path class="cls-1" d="M255.78,42.52c-3.03,2.8-7.14,4.2-12.33,4.2s-9.3-1.4-12.33-4.2c-3.03-2.8-4.55-6.94-4.55-12.42V3.01c0-.13,.01-.25,.06-.37,.04-.12,.11-.23,.2-.32,.09-.09,.2-.16,.32-.2,.12-.04,.24-.06,.37-.06h8.15c.13-.02,.26,0,.38,.04,.12,.04,.23,.11,.32,.2,.09,.09,.16,.2,.2,.33,.04,.12,.05,.25,.04,.38V29.58c0,5.53,2.28,8.29,6.84,8.29,4.56,0,6.85-2.76,6.87-8.29V3.01c-.02-.13,0-.26,.04-.38,.04-.12,.11-.23,.2-.33,.09-.09,.2-.16,.33-.2,.12-.04,.25-.05,.38-.04h8.15c.13,0,.25,.01,.37,.06,.12,.04,.23,.11,.32,.2,.09,.09,.15,.2,.2,.32,.04,.12,.06,.24,.06,.37V30.1c-.01,5.47-1.54,9.62-4.57,12.42Z"/>
        <path class="cls-1" d="M268.28,45.85c-.12,.01-.25,0-.37-.04-.12-.04-.23-.11-.32-.2-.09-.09-.16-.2-.2-.32-.04-.12-.05-.25-.04-.37V3.07c-.02-.13,0-.26,.04-.38,.04-.12,.11-.24,.2-.33,.09-.09,.2-.16,.33-.2,.12-.04,.25-.05,.38-.04h14.3c5.3,0,9.36,1,12.2,3.01,2.83,2.01,4.25,4.83,4.25,8.46,0,4.11-1.77,7.19-5.32,9.23-.3,.19-.28,.37,.06,.55,4.65,1.96,6.98,5.42,6.98,10.38,0,3.98-1.44,6.99-4.32,9.04-2.88,2.05-7.01,3.07-12.39,3.07l-15.78-.02Zm9.07-26.8c-.01,.06,0,.13,.01,.19,.02,.06,.05,.12,.1,.17,.05,.05,.1,.08,.16,.1,.06,.02,.13,.03,.19,.02h4.94c1.77,0,3.14-.38,4.1-1.15,.96-.76,1.44-1.88,1.44-3.33s-.48-2.56-1.44-3.33-2.33-1.15-4.1-1.15h-4.94c-.07-.01-.13,0-.2,.01-.07,.02-.12,.06-.17,.1-.05,.05-.08,.11-.1,.17-.02,.06-.02,.13-.01,.2l.02,7.98Zm0,17.88c0,.31,.16,.46,.49,.46h5.61c2.15,0,3.78-.44,4.87-1.32s1.65-2.14,1.65-3.78c0-3.29-2.17-4.94-6.52-4.94h-5.62c-.33,0-.49,.15-.49,.46l.02,9.12Z"/>
      </g>
    </g>
  </g>
</svg>