<?xml version="1.0" encoding="UTF-8"?>
<svg id="Camada_2" data-name="Camada 2" xmlns="http://www.w3.org/2000/svg" viewBox="0 0 44.26 44.26">
  <defs>
    <style>
      .cls-1 {
        fill: #fff;
      }
    </style>
  </defs>
  <g id="Camada_2-2" data-name="Camada 2">
    <g id="Camada_1-2" data-name="Camada 1-2">
      <g>
        <path class="cls-1" d="M22.12,0c12.17,0,22.35,9.91,22.14,22.56-.2,11.85-9.93,21.92-22.59,21.7C9.88,44.05-.27,34.36,0,21.57,.27,9.77,9.91,.03,22.12,0Zm19.93,22.15c-.03-11.02-8.85-19.75-19.56-19.92C11.15,2.05,2.24,11.15,2.21,22.07c-.03,11.08,8.88,19.87,19.68,19.98,11.21,.12,20.12-8.93,20.15-19.9h0Z"/>
        <path class="cls-1" d="M15.49,22.13V13.83c0-.73,.16-1.43,.71-1.98,.45-.45,1.01-.63,1.6-.45,.57,.18,1.15,.43,1.65,.76,3.83,2.5,7.66,5.02,11.46,7.56,.47,.31,.92,.74,1.22,1.22,.75,1.22,.33,2.63-1.05,3.56-1.51,1.03-3.04,2-4.57,3-2.36,1.54-4.71,3.09-7.07,4.62-.39,.26-.81,.5-1.26,.65-1.29,.44-2.38-.23-2.61-1.57-.06-.35-.09-.7-.09-1.05v-8.02h0Zm2.21-.04v6.91c0,.36,0,.8,.37,.91,.28,.08,.7-.02,.97-.19,3.42-2.21,6.82-4.44,10.23-6.67,.88-.57,.87-1.23-.02-1.82-3.4-2.24-6.8-4.48-10.21-6.7-.26-.17-.73-.29-.95-.17-.22,.13-.36,.58-.36,.9-.03,2.27-.02,4.55-.02,6.82h0Z"/>
      </g>
    </g>
  </g>
</svg>